<mxfile host="app.diagrams.net" modified="2022-05-16T01:41:20.580Z" agent="5.0 (Windows NT 10.0; Win64; x64) AppleWebKit/537.36 (KHTML, like Gecko) Chrome/101.0.4951.54 Safari/537.36 Edg/101.0.1210.39" etag="4S76qnMaqxlOEHGoRFux" version="18.0.3" type="github">
  <diagram id="qNhb6tgec5BPuqQKYvyF" name="Page-1">
    <mxGraphModel dx="1635" dy="866" grid="1" gridSize="10" guides="1" tooltips="1" connect="1" arrows="1" fold="1" page="1" pageScale="1" pageWidth="827" pageHeight="1169" math="0" shadow="0">
      <root>
        <mxCell id="0" />
        <mxCell id="1" parent="0" />
        <mxCell id="rD7rvNQPPvMgM9-MSRBv-1" value="安全事件&lt;br&gt;IncidentDoc" style="rounded=1;whiteSpace=wrap;html=1;" vertex="1" parent="1">
          <mxGeometry x="190" y="250" width="120" height="60" as="geometry" />
        </mxCell>
        <mxCell id="rD7rvNQPPvMgM9-MSRBv-2" value="合并告警&lt;br&gt;MergeAlertDoc" style="rounded=1;whiteSpace=wrap;html=1;" vertex="1" parent="1">
          <mxGeometry x="30" y="370" width="120" height="60" as="geometry" />
        </mxCell>
        <mxCell id="rD7rvNQPPvMgM9-MSRBv-3" value="合并日志&lt;br&gt;MergeAlertDoc" style="rounded=1;whiteSpace=wrap;html=1;" vertex="1" parent="1">
          <mxGeometry x="190" y="370" width="120" height="60" as="geometry" />
        </mxCell>
        <mxCell id="rD7rvNQPPvMgM9-MSRBv-4" value="关系&lt;br&gt;RelationDoc" style="rounded=1;whiteSpace=wrap;html=1;" vertex="1" parent="1">
          <mxGeometry x="354" y="370" width="120" height="60" as="geometry" />
        </mxCell>
        <mxCell id="rD7rvNQPPvMgM9-MSRBv-5" value="原始告警&lt;br&gt;AlertDoc" style="rounded=1;whiteSpace=wrap;html=1;" vertex="1" parent="1">
          <mxGeometry x="30" y="490" width="120" height="60" as="geometry" />
        </mxCell>
        <mxCell id="rD7rvNQPPvMgM9-MSRBv-6" value="原始日志&lt;br&gt;LogDoc" style="rounded=1;whiteSpace=wrap;html=1;" vertex="1" parent="1">
          <mxGeometry x="190" y="490" width="120" height="60" as="geometry" />
        </mxCell>
      </root>
    </mxGraphModel>
  </diagram>
</mxfile>
